<svg xmlns="http://www.w3.org/2000/svg" width="213" height="32" viewBox="0 0 213 32" fill="none">
  <path d="M61.1369 0L67.202 9.34122L77.9603 12.2229L70.9505 20.8779L71.5343 32L61.1369 28.0078L50.7395 32L51.3233 20.8779L44.3135 12.2229L55.0718 9.34122L61.1369 0Z" fill="#F85559"/>
  <path d="M61.2051 0L67.2702 9.34122L78.0285 12.2229L71.0187 20.8779L71.6025 32L61.2051 28.0078V0Z" fill="#FBC0A8"/>
  <path d="M16.8234 0L22.8886 9.34122L33.6468 12.2229L26.637 20.8779L27.2208 32L16.8234 28.0078L6.42603 32L7.00981 20.8779L0 12.2229L10.7583 9.34122L16.8234 0Z" fill="#F85559"/>
  <path d="M106.157 0L112.222 9.34122L122.98 12.2229L115.971 20.8779L116.554 32L106.157 28.0078L95.7595 32L96.3433 20.8779L89.3335 12.2229L100.092 9.34122L106.157 0Z" fill="#FBC0A8"/>
  <path d="M195.49 0L201.555 9.34122L212.313 12.2229L205.304 20.8779L205.887 32L195.49 28.0078L185.093 32L185.676 20.8779L178.667 12.2229L189.425 9.34122L195.49 0Z" fill="#FBC0A8"/>
  <path d="M151.49 0L157.555 9.34122L168.313 12.2229L161.304 20.8779L161.887 32L151.49 28.0078L141.093 32L141.676 20.8779L134.667 12.2229L145.425 9.34122L151.49 0Z" fill="#FBC0A8"/>
</svg>